<svg id="visual" viewBox="0 0 900 600" width="900" height="600" xmlns="http://www.w3.org/2000/svg" xmlns:xlink="http://www.w3.org/1999/xlink" version="1.1"><rect x="0" y="0" width="900" height="600" fill="#ffffff"></rect><path d="M0 421L21.5 418C43 415 86 409 128.8 402.5C171.7 396 214.3 389 257.2 393C300 397 343 412 385.8 418C428.7 424 471.3 421 514.2 423.5C557 426 600 434 642.8 426.3C685.7 418.7 728.3 395.3 771.2 389C814 382.7 857 393.3 878.5 398.7L900 404L900 601L878.5 601C857 601 814 601 771.2 601C728.3 601 685.7 601 642.8 601C600 601 557 601 514.2 601C471.3 601 428.7 601 385.8 601C343 601 300 601 257.2 601C214.3 601 171.7 601 128.8 601C86 601 43 601 21.5 601L0 601Z" fill="#afa0c7"></path><path d="M0 396L21.5 399.8C43 403.7 86 411.3 128.8 418C171.7 424.7 214.3 430.3 257.2 427.5C300 424.7 343 413.3 385.8 416.7C428.7 420 471.3 438 514.2 445C557 452 600 448 642.8 439.3C685.7 430.7 728.3 417.3 771.2 420.7C814 424 857 444 878.5 454L900 464L900 601L878.5 601C857 601 814 601 771.2 601C728.3 601 685.7 601 642.8 601C600 601 557 601 514.2 601C471.3 601 428.7 601 385.8 601C343 601 300 601 257.2 601C214.3 601 171.7 601 128.8 601C86 601 43 601 21.5 601L0 601Z" fill="#aa99c5"></path><path d="M0 467L21.5 469.2C43 471.3 86 475.7 128.8 482.3C171.7 489 214.3 498 257.2 495.8C300 493.7 343 480.3 385.8 472.7C428.7 465 471.3 463 514.2 463.2C557 463.3 600 465.7 642.8 473.7C685.7 481.7 728.3 495.3 771.2 496.2C814 497 857 485 878.5 479L900 473L900 601L878.5 601C857 601 814 601 771.2 601C728.3 601 685.7 601 642.8 601C600 601 557 601 514.2 601C471.3 601 428.7 601 385.8 601C343 601 300 601 257.2 601C214.3 601 171.7 601 128.8 601C86 601 43 601 21.5 601L0 601Z" fill="#a592c3"></path><path d="M0 514L21.5 516.8C43 519.7 86 525.3 128.8 522.5C171.7 519.7 214.3 508.3 257.2 502C300 495.7 343 494.3 385.8 501.7C428.7 509 471.3 525 514.2 529.7C557 534.3 600 527.7 642.8 519.8C685.7 512 728.3 503 771.2 504C814 505 857 516 878.5 521.5L900 527L900 601L878.5 601C857 601 814 601 771.2 601C728.3 601 685.7 601 642.8 601C600 601 557 601 514.2 601C471.3 601 428.7 601 385.8 601C343 601 300 601 257.2 601C214.3 601 171.7 601 128.8 601C86 601 43 601 21.5 601L0 601Z" fill="#a08bc1"></path><path d="M0 548L21.5 550.8C43 553.7 86 559.3 128.8 562.5C171.7 565.7 214.3 566.3 257.2 561.8C300 557.3 343 547.7 385.8 545.5C428.7 543.3 471.3 548.7 514.2 552C557 555.3 600 556.7 642.8 554.7C685.7 552.7 728.3 547.3 771.2 547.8C814 548.3 857 554.7 878.5 557.8L900 561L900 601L878.5 601C857 601 814 601 771.2 601C728.3 601 685.7 601 642.8 601C600 601 557 601 514.2 601C471.3 601 428.7 601 385.8 601C343 601 300 601 257.2 601C214.3 601 171.7 601 128.8 601C86 601 43 601 21.5 601L0 601Z" fill="#9a84bf"></path></svg>